PathFileType	4	(x/y/z)	S05_PSF_T06
DataRate	CameraRate	NumFrames	NumMarkers	Units	OrigDataRate	OrigDataStartFrame	OrigNumFrames
240	240	10	50	mm	240	216	430
Frame#	Time	Sternum			R.Acromium			L.Acromium			Top.Head			R.ASIS			L.ASIS			R.PSIS			L.PSIS			R.Great.Tro			L.Great.Tro			R.Iliac.Crest			L.Iliac.Crest			V.Sacral			R.Thigh.Upper.Post			R.Thigh.Lower.Ant			R.Thigh.Lower.Post			R.Thigh.Upper.Ant			R.Knee.Lat			R.Knee.Med			R.Shank.Upper.Post			R.Shank.Lower.Ant			R.Shank.Lower.Post			R.Shank.Upper.Ant			R.Ankle.Lat			R.Ankle.Med			R.Heel.Upper			R.Heel.Med			R.Heel.Lat			R.Toe.Lat			R.Toe.Med			R.Toe.Tip			L.Thigh.Upper.Post			L.Thigh.Lower.Ant			L.Thigh.Lower.Post			L.Thigh.Upper.Ant			L.Knee.Lat			L.Shank.Upper.Post			L.Shank.Lower.Ant			L.Shank.Lower.Post			L.Shank.Upper.Ant			L.Ankle.Lat			L.Ankle.Med			L.Heel.Upper			L.Heel.Med			L.Heel.Lat			L.Toe.Lat			L.Toe.Med			L.Toe.Tip			Cervical.Spine			Back			
		X1	Y1	Z1	X2	Y2	Z2	X3	Y3	Z3	X4	Y4	Z4	X5	Y5	Z5	X6	Y6	Z6	X7	Y7	Z7	X8	Y8	Z8	X9	Y9	Z9	X10	Y10	Z10	X11	Y11	Z11	X12	Y12	Z12	X13	Y13	Z13	X14	Y14	Z14	X15	Y15	Z15	X16	Y16	Z16	X17	Y17	Z17	X18	Y18	Z18	X19	Y19	Z19	X20	Y20	Z20	X21	Y21	Z21	X22	Y22	Z22	X23	Y23	Z23	X24	Y24	Z24	X25	Y25	Z25	X26	Y26	Z26	X27	Y27	Z27	X28	Y28	Z28	X29	Y29	Z29	X30	Y30	Z30	X31	Y31	Z31	X32	Y32	Z32	X33	Y33	Z33	X34	Y34	Z34	X35	Y35	Z35	X36	Y36	Z36	X37	Y37	Z37	X38	Y38	Z38	X39	Y39	Z39	X40	Y40	Z40	X41	Y41	Z41	X42	Y42	Z42	X43	Y43	Z43	X44	Y44	Z44	X45	Y45	Z45	X46	Y46	Z46	X47	Y47	Z47	X48	Y48	Z48	X49	Y49	Z49	X50	Y50	Z50	

216	0.89583	-279.51	1260.7	315.36	-368.61	1515.2	479.39	-376.78	1547.7	157.38	-361.12	1831.7	323.45	-349.09	1016.8	441.87	-340.47	1019.4	191.14	-547.49	1028.5	348.09	-542.82	1026.6	256.69	-426.27	930.42	498.54	-415.79	932.51	111.72	-441.18	1097.3	476.97	-431.18	1094.8	141.09	-557.64	992.53	315.45	-353.57	712.03	484.31	-297.63	646.23	429.8	-361.2	625.06	458.79	-294.52	732.76	454.68	-360.16	528.25	437.29	-359.13	518.73	306.38	-456.25	293.84	424.8	-398.18	223.25	417.38	-461.81	218.87	403.57	-389.7	299.44	436.46	-425.86	123.6	400.53	-417.33	149.43	311.71	-500.98	77.003	336.34	-492.01	44.386	310.08	-493.89	49.954	374.81	-331.17	37.554	433.41	-291.82	37.654	314.05	-229.28	52.623	360.64	-337.65	706.35	107.26	-239.19	660.34	127.65	-298.53	619.5	118.41	-270.14	745.64	117.21	-274.68	540.25	124.72	-438.88	429.06	136.7	-423.68	341.99	130.43	-484.47	373.3	152.36	-382.18	398.79	119.62	-551.47	249.33	157.51	-506.61	234.86	238.55	-622.31	245.3	218.72	-624.88	217.9	250.57	-640.53	224.19	190.82	-512.03	109.6	115.74	-471.86	100.85	228.02	-422.26	73.192	166.89	-415.6	1570	324.79	-537.68	1300.2	311.69
217	0.9	-274.53	1261.5	315.3	-363.29	1516.1	479.33	-372.06	1548.3	157.29	-355.82	1832.4	323.07	-344.26	1017.2	442.23	-335.37	1020.2	191.49	-542.49	1029.2	348.12	-537.74	1027.2	256.71	-421.87	930.91	498.62	-410.27	933.45	111.77	-436.18	1097.9	477.13	-426.17	1095.5	141.27	-552.62	993.2	315.44	-350.77	712.08	484.42	-295.17	645.87	430.08	-358.98	625.18	458.9	-291.46	732.39	455.03	-358.72	528.3	437.37	-357.38	518.77	306.39	-455.71	294.31	424.76	-397.8	223.49	417.33	-461.45	219.31	403.46	-389.07	299.63	436.45	-425.66	123.8	400.48	-417.03	149.63	311.65	-500.87	77.264	336.24	-492.06	44.604	309.96	-493.8	50.191	374.71	-331.14	37.54	433.42	-291.72	37.611	314.04	-229.18	52.441	360.68	-330.45	707.88	107.05	-231.71	662.63	127.84	-290.7	621.33	118.3	-263.29	747.69	117.34	-266.48	541.96	124.91	-428.82	427.43	136.84	-411.85	340.71	130.58	-473.24	370.75	152.51	-371.54	398.33	119.75	-537.63	245.31	157.61	-492.39	231.75	238.62	-608.47	239.68	218.77	-610.32	212.16	250.57	-626.18	218.17	190.9	-495	106.55	115.79	-454.65	98.767	228.07	-404.4	72.266	166.92	-410.54	1570.6	324.77	-532.64	1300.8	312.11
218	0.90417	-269.54	1262.3	315.24	-357.99	1516.9	479.26	-367.32	1548.8	157.19	-350.53	1833	322.67	-339.43	1017.5	442.57	-330.27	1020.9	191.83	-537.49	1029.8	348.13	-532.67	1027.8	256.73	-417.49	931.37	498.68	-404.78	934.34	111.82	-431.19	1098.4	477.27	-421.15	1096.3	141.43	-547.61	993.84	315.43	-347.98	712.14	484.53	-292.71	645.52	430.35	-356.75	625.31	458.99	-288.42	732.01	455.38	-357.28	528.36	437.45	-355.64	518.81	306.41	-455.15	294.79	424.71	-397.41	223.74	417.28	-461.1	219.75	403.35	-388.44	299.82	436.42	-425.46	124	400.43	-416.73	149.85	311.59	-500.76	77.534	336.14	-492.11	44.826	309.83	-493.71	50.429	374.61	-331.11	37.525	433.44	-291.62	37.572	314.03	-229.09	52.261	360.72	-323.33	709.36	106.83	-224.32	664.83	128.02	-282.99	623.09	118.19	-256.51	749.66	117.46	-258.42	543.6	125.09	-418.8	425.66	136.97	-400.02	339.34	130.72	-462	368.06	152.65	-360.95	397.79	119.86	-523.67	241.19	157.72	-478.06	228.56	238.68	-594.44	233.91	218.87	-595.56	206.29	250.63	-611.64	212	191.03	-477.83	103.48	115.82	-437.27	96.679	228.09	-386.43	71.368	166.9	-405.48	1571.2	324.73	-527.6	1301.4	312.52
219	0.90833	-264.55	1263	315.17	-352.69	1517.6	479.18	-362.56	1549.3	157.09	-345.24	1833.6	322.25	-334.6	1017.8	442.9	-325.17	1021.6	192.15	-532.5	1030.5	348.14	-527.59	1028.4	256.74	-413.11	931.82	498.74	-399.31	935.18	111.85	-426.2	1099	477.41	-416.11	1096.9	141.57	-542.61	994.45	315.41	-345.2	712.19	484.63	-290.27	645.16	430.62	-354.53	625.43	459.09	-285.39	731.64	455.73	-355.85	528.42	437.52	-353.91	518.84	306.41	-454.59	295.25	424.65	-397.02	223.98	417.24	-460.75	220.2	403.24	-387.82	300.02	436.39	-425.26	124.2	400.37	-416.43	150.06	311.53	-500.65	77.81	336.03	-492.14	45.049	309.69	-493.62	50.671	374.5	-331.07	37.508	433.45	-291.51	37.537	314.02	-229	52.082	360.77	-316.3	710.79	106.61	-217.04	666.95	128.19	-275.39	624.8	118.08	-249.81	751.56	117.57	-250.5	545.18	125.26	-408.82	423.75	137.09	-388.18	337.89	130.85	-450.74	365.25	152.79	-350.41	397.15	119.97	-509.6	236.96	157.85	-463.62	225.3	238.73	-580.24	228	219.01	-580.59	200.31	250.72	-596.91	205.71	191.2	-460.54	100.4	115.83	-419.73	94.597	228.08	-368.34	70.511	166.83	-400.43	1571.8	324.69	-522.57	1302	312.92
220	0.9125	-259.55	1263.7	315.1	-347.42	1518.4	479.1	-357.79	1549.8	156.98	-339.95	1834.1	321.81	-329.77	1018.1	443.21	-320.06	1022.2	192.46	-527.52	1031	348.14	-522.52	1028.9	256.73	-408.74	932.25	498.8	-393.87	935.97	111.88	-421.21	1099.5	477.53	-411.06	1097.5	141.71	-537.61	995.02	315.39	-342.43	712.23	484.72	-287.83	644.81	430.88	-352.3	625.55	459.17	-282.37	731.26	456.06	-354.41	528.48	437.58	-352.19	518.86	306.41	-454	295.72	424.58	-396.61	224.23	417.21	-460.42	220.65	403.15	-387.21	300.22	436.35	-425.06	124.41	400.31	-416.13	150.28	311.46	-500.54	78.093	335.92	-492.16	45.273	309.54	-493.53	50.915	374.38	-331.04	37.49	433.46	-291.4	37.505	314.01	-228.91	51.905	360.81	-309.36	712.17	106.39	-209.88	668.98	128.34	-267.93	626.43	117.97	-243.19	753.36	117.66	-242.74	546.68	125.41	-398.87	421.72	137.21	-376.34	336.35	130.97	-439.47	362.31	152.94	-339.91	396.43	120.06	-495.42	232.65	157.99	-449.06	221.98	238.78	-565.84	221.99	219.18	-565.41	194.23	250.85	-581.98	199.32	191.41	-443.12	97.338	115.82	-402.04	92.534	228.03	-350.14	69.707	166.69	-395.38	1572.3	324.64	-517.53	1302.5	313.3
221	0.91667	-254.56	1264.3	315.03	-342.16	1519.1	479	-353	1550.2	156.86	-334.67	1834.7	321.36	-324.94	1018.4	443.51	-314.96	1022.8	192.76	-522.54	1031.6	348.13	-517.44	1029.4	256.72	-404.37	932.65	498.84	-388.45	936.7	111.9	-416.23	1100	477.65	-405.99	1098.1	141.83	-532.61	995.55	315.35	-339.66	712.28	484.79	-285.39	644.46	431.13	-350.07	625.67	459.25	-279.36	730.87	456.38	-352.97	528.55	437.64	-350.47	518.89	306.41	-453.41	296.18	424.49	-396.2	224.48	417.19	-460.09	221.1	403.05	-386.61	300.42	436.29	-424.86	124.63	400.25	-415.83	150.5	311.39	-500.43	78.38	335.79	-492.15	45.498	309.39	-493.43	51.162	374.25	-331.01	37.472	433.47	-291.29	37.478	313.99	-228.82	51.728	360.86	-302.52	713.48	106.17	-202.82	670.9	128.48	-260.6	627.99	117.86	-236.65	755.08	117.75	-235.13	548.1	125.55	-388.95	419.57	137.31	-364.49	334.75	131.09	-428.17	359.26	153.09	-329.45	395.63	120.13	-481.12	228.28	158.15	-434.39	218.62	238.83	-551.24	215.87	219.4	-550.01	188.08	251.03	-566.87	192.85	191.67	-425.58	94.299	115.78	-384.2	90.503	227.94	-331.85	68.971	166.49	-390.33	1572.8	324.59	-512.5	1303	313.67
222	0.92083	-249.56	1264.9	314.96	-336.91	1519.7	478.9	-348.18	1550.6	156.74	-329.4	1835.1	320.89	-320.12	1018.6	443.79	-309.85	1023.4	193.04	-517.56	1032.1	348.1	-512.37	1029.9	256.7	-400	933.04	498.88	-383.05	937.38	111.92	-411.27	1100.4	477.75	-400.9	1098.6	141.95	-527.62	996.05	315.31	-336.9	712.32	484.86	-282.95	644.11	431.37	-347.83	625.79	459.32	-276.35	730.49	456.69	-351.53	528.61	437.69	-348.76	518.91	306.4	-452.8	296.64	424.39	-395.78	224.73	417.16	-459.75	221.56	402.96	-386.01	300.63	436.23	-424.66	124.84	400.18	-415.52	150.73	311.31	-500.31	78.67	335.66	-492.13	45.722	309.23	-493.34	51.412	374.12	-330.98	37.452	433.47	-291.18	37.453	313.98	-228.73	51.554	360.91	-295.78	714.71	105.97	-195.88	672.72	128.61	-253.4	629.46	117.76	-230.2	756.7	117.83	-227.66	549.44	125.68	-379.06	417.3	137.42	-352.64	333.08	131.2	-416.85	356.11	153.24	-319.05	394.75	120.2	-466.71	223.84	158.31	-419.59	215.22	238.86	-536.44	209.66	219.65	-534.4	181.86	251.24	-551.55	186.31	191.97	-407.94	91.304	115.71	-366.22	88.521	227.79	-313.48	68.316	166.22	-385.28	1573.3	324.52	-507.47	1303.4	314.01
223	0.925	-244.56	1265.5	314.9	-331.67	1520.3	478.79	-343.35	1550.9	156.61	-324.13	1835.6	320.4	-315.29	1018.8	444.06	-304.74	1023.9	193.32	-512.59	1032.6	348.07	-507.29	1030.3	256.66	-395.64	933.4	498.92	-377.68	938.01	111.94	-406.3	1100.8	477.85	-395.79	1099.1	142.05	-522.63	996.51	315.25	-334.13	712.36	484.92	-280.5	643.75	431.59	-345.58	625.91	459.38	-273.35	730.1	456.98	-350.08	528.67	437.73	-347.05	518.92	306.38	-452.17	297.08	424.28	-395.36	224.98	417.14	-459.41	222.01	402.87	-385.42	300.83	436.14	-424.46	125.06	400.11	-415.2	150.96	311.23	-500.19	78.962	335.52	-492.07	45.947	309.07	-493.24	51.666	373.97	-330.95	37.431	433.47	-291.07	37.432	313.96	-228.64	51.381	360.97	-289.15	715.87	105.77	-189.06	674.42	128.72	-246.34	630.83	117.66	-223.83	758.21	117.91	-220.35	550.68	125.81	-369.2	414.9	137.51	-340.79	331.36	131.3	-405.49	352.85	153.4	-308.68	393.8	120.25	-452.18	219.37	158.48	-404.68	211.81	238.88	-521.44	203.38	219.94	-518.58	175.6	251.49	-536.04	179.71	192.3	-390.2	88.366	115.6	-348.1	86.602	227.59	-295.04	67.755	165.86	-380.23	1573.7	324.45	-502.44	1303.8	314.34
224	0.92917	-239.55	1265.9	314.83	-326.45	1520.9	478.68	-338.49	1551.1	156.48	-318.87	1836	319.9	-310.46	1019	444.32	-299.62	1024.3	193.58	-507.61	1033	348.02	-502.22	1030.6	256.62	-391.28	933.73	498.95	-372.33	938.57	111.95	-401.35	1101.2	477.93	-390.67	1099.5	142.14	-517.65	996.94	315.19	-331.36	712.4	484.97	-278.06	643.39	431.79	-343.32	626.02	459.43	-270.34	729.7	457.26	-348.62	528.72	437.76	-345.34	518.93	306.35	-451.52	297.53	424.16	-394.93	225.24	417.12	-459.06	222.47	402.77	-384.84	301.04	436.05	-424.26	125.28	400.03	-414.87	151.19	311.14	-500.05	79.252	335.37	-491.98	46.172	308.9	-493.14	51.924	373.82	-330.92	37.409	433.47	-290.96	37.414	313.95	-228.55	51.211	361.02	-282.63	716.94	105.59	-182.37	676	128.83	-239.43	632.11	117.58	-217.56	759.61	117.98	-213.18	551.83	125.92	-359.35	412.4	137.61	-328.93	329.58	131.38	-394.11	349.51	153.56	-298.36	392.77	120.29	-437.55	214.87	158.65	-389.66	208.39	238.89	-506.23	197.05	220.26	-502.53	169.31	251.77	-520.32	173.08	192.67	-372.36	85.501	115.44	-329.86	84.762	227.34	-276.54	67.302	165.41	-375.19	1574.1	324.37	-497.41	1304.2	314.64
225	0.93333	-234.55	1266.4	314.77	-321.24	1521.4	478.56	-333.61	1551.4	156.34	-313.61	1836.3	319.38	-305.63	1019.1	444.56	-294.5	1024.7	193.83	-502.64	1033.4	347.96	-497.14	1031	256.56	-386.92	934.04	498.97	-367	939.07	111.96	-396.41	1101.5	478	-385.53	1099.9	142.22	-512.67	997.33	315.11	-328.58	712.43	485.02	-275.6	643.03	431.98	-341.05	626.12	459.47	-267.33	729.29	457.51	-347.16	528.78	437.78	-343.62	518.94	306.32	-450.85	297.96	424.02	-394.51	225.49	417.1	-458.69	222.92	402.67	-384.27	301.24	435.93	-424.06	125.5	399.94	-414.53	151.43	311.03	-499.91	79.538	335.22	-491.85	46.397	308.72	-493.04	52.188	373.67	-330.89	37.386	433.46	-290.86	37.398	313.94	-228.46	51.044	361.07	-276.22	717.91	105.42	-175.81	677.45	128.93	-232.67	633.29	117.51	-211.39	760.9	118.04	-206.17	552.87	126.04	-349.51	409.8	137.71	-317.08	327.75	131.46	-382.7	346.09	153.73	-288.08	391.66	120.32	-422.81	210.35	158.83	-374.51	204.97	238.89	-490.82	190.69	220.6	-486.28	163.02	252.09	-504.41	166.43	193.07	-354.43	82.723	115.25	-311.51	83.016	227.02	-257.99	66.97	164.88	-370.14	1574.4	324.28	-492.38	1304.5	314.91
